<svg id="svg" version="1.1" xmlns="http://www.w3.org/2000/svg" xmlns:xlink="http://www.w3.org/1999/xlink" width="400" height="96.18768328445749" viewBox="0, 0, 400,96.18768328445749"><g id="svgg"><path id="path0" d="M279.833 52.492 L 279.833 96.167 281.000 96.167 L 282.167 96.167 282.125 52.542 L 282.083 8.917 280.958 8.867 L 279.833 8.818 279.833 52.492 M153.226 26.529 C 153.060 26.786,152.928 62.572,153.087 64.132 L 153.195 65.180 158.270 65.132 C 162.563 65.091,163.370 65.045,163.505 64.833 C 163.771 64.415,163.636 26.902,163.367 26.633 C 163.045 26.311,153.431 26.212,153.226 26.529 M167.374 26.471 C 167.208 26.577,167.174 30.562,167.208 45.844 L 167.250 65.083 172.417 65.083 L 177.583 65.083 177.671 61.250 C 177.720 59.142,177.776 57.548,177.796 57.708 C 177.822 57.912,177.982 58.000,178.323 58.000 C 178.753 58.000,178.819 58.065,178.864 58.542 C 178.910 59.012,178.985 59.090,179.433 59.134 C 179.937 59.183,179.953 59.212,180.100 60.300 C 180.240 61.339,180.281 61.420,180.692 61.468 C 181.048 61.509,181.154 61.630,181.241 62.093 C 181.333 62.587,181.414 62.667,181.821 62.667 C 182.280 62.667,182.299 62.702,182.439 63.785 L 182.583 64.903 183.231 65.037 C 183.588 65.111,186.438 65.151,189.565 65.127 L 195.250 65.083 195.299 63.958 C 195.346 62.882,195.332 62.833,194.966 62.831 C 194.363 62.827,194.225 62.644,194.116 61.704 C 193.992 60.626,193.919 60.500,193.417 60.500 C 193.092 60.500,193.012 60.403,192.969 59.958 C 192.926 59.511,192.823 59.389,192.383 59.259 C 191.953 59.133,191.840 59.004,191.800 58.593 C 191.757 58.152,191.677 58.076,191.208 58.031 C 190.692 57.981,190.667 57.946,190.664 57.281 C 190.661 56.167,190.511 55.827,189.978 55.721 C 189.665 55.658,189.500 55.522,189.500 55.326 C 189.500 54.750,189.300 54.500,188.837 54.500 C 188.397 54.500,188.371 54.455,188.262 53.488 C 188.159 52.575,188.102 52.460,187.683 52.314 C 187.171 52.136,186.763 51.212,187.018 50.809 C 187.097 50.685,187.163 50.420,187.164 50.219 C 187.166 49.947,187.282 49.842,187.625 49.803 C 187.976 49.762,188.120 49.626,188.239 49.223 C 188.352 48.839,188.517 48.672,188.850 48.605 C 189.275 48.520,189.313 48.440,189.422 47.424 L 189.539 46.333 190.103 46.333 C 190.634 46.333,190.667 46.300,190.667 45.761 C 190.667 45.236,190.712 45.183,191.208 45.136 C 191.682 45.090,191.756 45.017,191.801 44.551 C 191.846 44.088,191.922 44.013,192.385 43.968 C 192.846 43.924,192.923 43.847,192.967 43.394 C 193.009 42.967,193.107 42.854,193.503 42.774 C 193.877 42.700,194.020 42.553,194.128 42.130 C 194.237 41.710,194.370 41.571,194.705 41.532 C 195.220 41.471,195.470 40.549,195.180 39.784 L 195.008 39.333 188.754 39.333 L 182.500 39.333 182.497 39.708 C 182.494 40.237,182.314 40.457,181.833 40.525 C 181.454 40.578,181.403 40.685,181.266 41.700 C 181.120 42.788,181.104 42.817,180.600 42.866 C 180.154 42.910,180.076 42.989,180.032 43.449 C 179.987 43.912,179.912 43.987,179.449 44.032 C 178.983 44.077,178.910 44.151,178.864 44.625 C 178.821 45.076,178.743 45.167,178.401 45.167 C 178.130 45.167,177.938 45.295,177.839 45.542 C 177.746 45.772,177.684 42.180,177.677 36.226 C 177.668 27.550,177.639 26.525,177.403 26.434 C 177.009 26.283,167.616 26.317,167.374 26.471 M74.708 28.777 C 74.489 28.866,74.394 33.696,74.601 34.236 C 74.661 34.393,74.899 34.500,75.184 34.500 L 75.667 34.500 75.667 36.570 C 75.667 39.003,75.710 39.167,76.351 39.167 L 76.833 39.167 76.833 40.800 C 76.833 42.537,76.947 42.833,77.617 42.833 C 77.994 42.833,78.000 42.864,78.002 44.708 C 78.005 47.047,78.074 47.323,78.688 47.446 L 79.167 47.542 79.167 49.007 C 79.167 50.805,79.234 51.000,79.851 51.000 L 80.333 51.000 80.333 52.906 C 80.333 55.131,80.477 55.667,81.073 55.667 C 81.485 55.667,81.489 55.678,81.536 57.375 L 81.583 59.083 82.125 59.136 L 82.667 59.188 82.683 61.052 C 82.704 63.377,82.793 63.734,83.372 63.802 C 83.750 63.846,83.822 63.943,83.866 64.468 L 83.917 65.083 89.167 65.083 L 94.417 65.083 94.465 63.885 C 94.513 62.722,94.527 62.686,94.965 62.635 C 95.532 62.570,95.620 62.201,95.647 59.802 L 95.667 58.021 96.208 57.969 L 96.750 57.917 96.797 56.208 L 96.845 54.500 97.320 54.500 C 97.935 54.500,97.995 54.261,97.998 51.802 L 98.000 49.854 98.542 49.802 L 99.083 49.750 99.131 48.042 C 99.178 46.344,99.181 46.333,99.594 46.333 C 99.834 46.333,100.061 46.210,100.130 46.042 C 100.200 45.872,100.285 46.308,100.333 47.083 C 100.417 48.416,100.417 48.417,100.953 48.575 L 101.489 48.733 101.536 50.408 L 101.583 52.083 102.125 52.136 L 102.667 52.188 102.667 54.311 C 102.667 56.557,102.752 56.833,103.444 56.833 C 103.809 56.833,103.823 56.892,103.869 58.542 L 103.917 60.250 104.458 60.302 L 105.000 60.354 105.000 62.490 C 105.000 65.347,104.384 65.083,111.067 65.083 L 116.583 65.083 116.631 63.302 L 116.678 61.520 117.214 61.468 L 117.750 61.417 117.796 59.125 L 117.843 56.833 118.421 56.833 L 119.000 56.833 119.000 55.083 C 119.000 53.368,119.008 53.333,119.383 53.333 C 120.083 53.333,120.167 53.062,120.167 50.800 L 120.167 48.667 120.750 48.667 L 121.333 48.667 121.333 46.941 L 121.333 45.215 121.875 45.060 L 122.417 44.905 122.463 42.702 L 122.510 40.500 122.972 40.500 C 123.724 40.500,123.833 40.245,123.833 38.478 L 123.833 36.855 124.291 36.803 C 124.863 36.737,124.953 36.373,124.980 34.042 C 124.998 32.472,125.026 32.333,125.321 32.333 C 125.976 32.333,126.167 31.897,126.167 30.401 C 126.167 28.578,126.448 28.667,120.669 28.667 C 115.434 28.667,115.500 28.657,115.500 29.424 C 115.500 29.928,115.451 29.984,114.958 30.031 L 114.417 30.083 114.370 32.375 L 114.324 34.667 113.846 34.667 C 113.210 34.667,113.167 34.834,113.167 37.264 L 113.167 39.333 112.684 39.333 C 112.044 39.333,112.000 39.498,112.000 41.909 L 112.000 43.958 111.522 44.054 C 110.961 44.166,110.839 44.492,110.836 45.887 C 110.834 46.769,110.810 46.833,110.571 46.595 C 110.427 46.451,110.165 46.333,109.988 46.333 C 109.688 46.333,109.667 46.197,109.667 44.322 C 109.667 42.131,109.536 41.667,108.917 41.667 C 108.517 41.667,108.511 41.643,108.464 39.958 L 108.417 38.250 107.880 38.198 L 107.343 38.146 107.296 35.865 L 107.250 33.583 106.708 33.531 L 106.167 33.479 106.167 31.438 C 106.167 28.493,106.705 28.761,100.652 28.695 C 97.879 28.665,95.361 28.687,95.055 28.744 L 94.500 28.848 94.500 30.591 L 94.500 32.333 93.917 32.333 L 93.333 32.333 93.333 34.073 L 93.333 35.812 92.792 35.864 L 92.250 35.917 92.204 38.198 L 92.157 40.480 91.620 40.531 C 91.012 40.590,90.890 41.122,90.851 43.875 L 90.833 45.167 90.333 45.167 C 89.873 45.167,89.833 45.213,89.833 45.750 C 89.833 46.319,89.817 46.333,89.167 46.333 L 88.500 46.333 88.500 43.617 C 88.500 40.740,88.440 40.500,87.717 40.500 C 87.337 40.500,87.333 40.482,87.333 38.367 C 87.333 36.108,87.249 35.833,86.555 35.833 C 86.182 35.833,86.175 35.800,86.130 33.542 L 86.083 31.250 85.542 31.198 L 85.000 31.146 85.000 30.007 C 85.000 29.123,84.941 28.846,84.736 28.768 C 84.422 28.647,75.009 28.656,74.708 28.777 M338.500 39.330 L 338.500 42.828 334.375 42.872 L 330.250 42.917 330.198 43.458 C 330.146 43.993,330.134 44.000,329.281 44.003 C 328.256 44.006,328.064 44.105,327.912 44.710 C 327.821 45.071,327.700 45.167,327.333 45.167 C 326.776 45.167,326.667 45.399,326.667 46.586 C 326.667 47.471,326.662 47.479,326.125 47.531 L 325.583 47.583 325.534 48.708 C 325.488 49.750,325.457 49.833,325.109 49.833 C 324.387 49.833,324.333 50.065,324.333 53.211 C 324.333 56.387,324.426 56.833,325.082 56.833 C 325.463 56.833,325.487 56.893,325.534 57.958 L 325.583 59.083 326.125 59.136 C 326.621 59.183,326.667 59.236,326.667 59.761 C 326.667 60.304,326.696 60.333,327.250 60.333 C 327.806 60.333,327.833 60.361,327.833 60.917 C 327.833 61.472,327.861 61.500,328.417 61.500 C 328.972 61.500,329.000 61.528,329.000 62.083 C 329.000 62.638,329.028 62.667,329.579 62.667 C 330.091 62.667,330.173 62.728,330.297 63.208 L 330.438 63.750 335.011 63.750 L 339.583 63.750 339.636 63.208 L 339.688 62.667 340.753 62.667 L 341.818 62.667 341.928 62.083 C 342.022 61.583,342.103 61.500,342.501 61.500 C 342.972 61.500,343.167 61.252,343.167 60.653 C 343.167 60.412,343.285 60.333,343.647 60.333 C 344.199 60.333,344.327 60.047,344.331 58.802 C 344.333 58.043,344.349 58.020,344.875 57.969 L 345.417 57.917 345.460 46.875 L 345.502 35.833 342.001 35.833 L 338.500 35.833 338.500 39.330 M367.743 37.272 C 367.617 38.790,367.756 41.323,367.978 41.545 C 368.050 41.617,369.340 41.655,370.846 41.629 L 373.583 41.583 373.667 41.007 C 373.731 40.564,373.846 40.408,374.163 40.334 C 375.047 40.126,375.021 37.134,374.134 37.032 C 373.766 36.989,373.677 36.885,373.635 36.448 L 373.583 35.917 370.724 35.871 L 367.864 35.826 367.743 37.272 M131.036 38.364 C 130.924 38.476,130.833 38.739,130.833 38.950 C 130.833 39.313,130.773 39.333,129.667 39.333 L 128.500 39.333 128.500 39.909 L 128.500 40.485 127.375 40.534 L 126.250 40.583 126.198 41.125 C 126.150 41.621,126.097 41.667,125.573 41.667 L 125.000 41.667 125.000 43.316 C 125.000 45.050,125.053 45.167,125.836 45.167 C 126.063 45.167,126.159 45.311,126.198 45.708 C 126.243 46.182,126.316 46.256,126.782 46.301 C 127.245 46.346,127.320 46.422,127.365 46.885 C 127.410 47.350,127.484 47.423,127.958 47.469 C 128.454 47.517,128.500 47.570,128.500 48.094 C 128.500 48.646,128.523 48.667,129.133 48.667 C 129.759 48.667,129.766 48.674,129.698 49.250 L 129.630 49.833 128.482 49.833 L 127.333 49.833 127.333 50.417 C 127.333 50.972,127.306 51.000,126.750 51.000 C 126.194 51.000,126.167 51.028,126.167 51.583 C 126.167 52.139,126.139 52.167,125.583 52.167 C 125.030 52.167,125.000 52.196,125.000 52.739 C 125.000 53.264,124.954 53.317,124.458 53.364 L 123.917 53.417 123.917 57.417 L 123.917 61.417 124.458 61.469 C 124.954 61.517,125.000 61.570,125.000 62.094 C 125.000 62.637,125.030 62.667,125.583 62.667 C 126.139 62.667,126.167 62.694,126.167 63.250 C 126.167 63.804,126.196 63.833,126.740 63.833 C 127.282 63.833,127.316 63.867,127.365 64.458 L 127.417 65.083 128.522 65.132 C 129.586 65.179,129.631 65.199,129.722 65.650 C 129.840 66.240,130.389 66.333,133.760 66.333 C 136.521 66.333,136.667 66.299,136.667 65.649 L 136.667 65.167 142.708 65.164 C 146.031 65.163,148.919 65.117,149.125 65.062 L 149.500 64.961 149.500 58.082 C 149.500 50.655,149.541 51.000,148.653 51.000 C 148.348 51.000,148.333 50.839,148.333 47.500 L 148.333 44.000 147.750 44.000 L 147.167 44.000 147.167 42.833 L 147.167 41.667 146.583 41.667 C 146.028 41.667,146.000 41.639,146.000 41.083 C 146.000 40.530,145.971 40.500,145.427 40.500 C 144.903 40.500,144.850 40.454,144.802 39.958 L 144.750 39.417 143.635 39.368 L 142.520 39.319 142.468 38.784 L 142.417 38.250 136.827 38.206 C 132.619 38.173,131.188 38.212,131.036 38.364 M299.743 43.042 C 299.699 43.156,299.683 46.813,299.707 51.167 L 299.750 59.083 302.125 59.130 L 304.500 59.176 304.500 59.755 L 304.500 60.333 306.159 60.333 L 307.818 60.333 307.928 59.750 L 308.037 59.167 309.082 59.167 C 310.268 59.167,310.327 59.094,310.331 57.636 C 310.333 56.877,310.349 56.853,310.875 56.802 L 311.417 56.750 311.464 55.042 L 311.512 53.333 312.083 53.333 L 312.655 53.333 312.703 55.042 L 312.750 56.750 313.292 56.802 L 313.833 56.854 313.833 57.993 C 313.833 59.181,313.737 59.333,312.986 59.333 C 312.744 59.333,312.667 59.451,312.667 59.823 C 312.667 60.253,312.601 60.319,312.125 60.364 L 311.583 60.417 311.536 62.125 L 311.488 63.833 313.726 63.833 C 316.103 63.833,316.167 63.811,316.167 62.986 C 316.167 62.745,316.285 62.667,316.649 62.667 C 317.267 62.667,317.333 62.472,317.333 60.664 L 317.333 59.188 317.875 59.136 L 318.417 59.083 318.464 57.375 L 318.512 55.667 319.089 55.667 L 319.667 55.667 319.667 54.500 L 319.667 53.333 320.149 53.333 C 320.767 53.333,320.833 53.138,320.833 51.330 L 320.833 49.854 321.375 49.802 C 322.364 49.707,322.225 47.500,321.230 47.500 C 320.927 47.500,320.833 47.409,320.833 47.117 C 320.833 46.484,320.520 46.333,319.206 46.333 C 317.372 46.333,317.333 46.373,317.333 48.245 L 317.333 49.812 316.792 49.864 C 316.343 49.908,316.233 50.001,316.145 50.417 C 316.041 50.907,316.039 50.908,316.020 50.472 C 316.004 50.121,315.896 50.004,315.507 49.918 C 315.028 49.813,315.013 49.780,314.966 48.697 C 314.917 47.589,314.914 47.583,314.407 47.534 C 313.996 47.493,313.867 47.381,313.741 46.950 L 313.583 46.417 312.294 46.368 C 310.646 46.306,310.339 46.463,310.314 47.381 C 310.303 47.767,310.260 47.952,310.218 47.792 C 310.165 47.585,309.975 47.500,309.571 47.500 C 309.086 47.500,309.000 47.442,309.000 47.117 C 309.000 46.417,308.729 46.333,306.467 46.333 L 304.333 46.333 304.333 44.583 L 304.333 42.833 302.078 42.833 C 300.428 42.833,299.801 42.889,299.743 43.042 M351.507 43.153 C 351.412 43.332,351.333 43.596,351.333 43.739 C 351.333 43.926,351.168 44.000,350.750 44.000 C 350.194 44.000,350.167 44.028,350.167 44.583 C 350.167 45.139,350.139 45.167,349.583 45.167 C 349.028 45.167,349.000 45.194,349.000 45.750 C 349.000 46.306,348.972 46.333,348.417 46.333 C 347.863 46.333,347.833 46.363,347.833 46.906 C 347.833 47.430,347.788 47.483,347.292 47.531 L 346.750 47.583 346.706 53.147 C 346.660 59.039,346.675 59.167,347.437 59.167 C 347.779 59.167,347.833 59.247,347.833 59.750 C 347.833 60.306,347.861 60.333,348.417 60.333 C 348.972 60.333,349.000 60.361,349.000 60.917 C 349.000 61.472,349.028 61.500,349.583 61.500 C 350.139 61.500,350.167 61.528,350.167 62.083 L 350.167 62.667 351.333 62.667 L 352.500 62.667 352.500 63.250 L 352.500 63.833 356.583 63.833 L 360.667 63.833 360.667 63.250 L 360.667 62.667 361.833 62.667 L 363.000 62.667 363.000 62.083 C 363.000 61.528,363.028 61.500,363.583 61.500 C 364.139 61.500,364.167 61.472,364.167 60.917 C 364.167 60.361,364.194 60.333,364.750 60.333 C 365.304 60.333,365.333 60.304,365.333 59.761 C 365.333 59.236,365.379 59.183,365.875 59.136 L 366.417 59.083 366.463 56.809 L 366.509 54.535 367.088 54.468 L 367.667 54.400 367.667 57.450 L 367.667 60.500 367.186 60.500 C 366.719 60.500,366.702 60.529,366.592 61.562 C 366.483 62.577,366.454 62.632,365.947 62.777 L 365.417 62.929 365.417 66.340 L 365.417 69.750 367.002 69.797 C 369.174 69.862,369.901 69.699,369.968 69.135 C 370.009 68.785,370.132 68.679,370.599 68.591 C 371.071 68.503,371.197 68.392,371.277 67.991 C 371.342 67.665,371.476 67.500,371.676 67.500 C 372.227 67.500,372.500 67.031,372.500 66.082 C 372.500 65.195,372.504 65.187,373.042 65.136 L 373.583 65.083 373.631 63.302 L 373.678 61.521 374.130 61.469 C 374.668 61.407,374.784 61.023,374.814 59.208 L 374.833 58.000 375.409 58.000 L 375.985 58.000 376.034 59.125 L 376.083 60.250 376.625 60.302 C 377.121 60.350,377.167 60.403,377.167 60.927 C 377.167 61.469,377.198 61.500,377.739 61.500 C 378.264 61.500,378.317 61.546,378.364 62.042 L 378.417 62.583 379.532 62.632 L 380.647 62.681 380.698 63.216 L 380.750 63.750 385.238 63.794 C 390.008 63.842,389.992 63.844,389.997 63.042 C 390.000 62.725,390.090 62.667,390.583 62.667 C 391.139 62.667,391.167 62.639,391.167 62.083 C 391.167 61.528,391.194 61.500,391.750 61.500 C 392.306 61.500,392.333 61.472,392.333 60.917 C 392.333 60.363,392.362 60.333,392.909 60.333 L 393.485 60.333 393.534 61.458 L 393.583 62.583 394.115 62.635 C 394.578 62.680,394.654 62.755,394.699 63.218 L 394.750 63.750 397.046 63.796 L 399.341 63.843 399.296 60.963 L 399.250 58.083 398.718 58.032 C 398.281 57.990,398.178 57.901,398.135 57.532 C 398.054 56.825,396.112 56.834,396.031 57.542 C 395.939 58.335,394.667 58.228,394.667 57.427 C 394.667 56.903,394.712 56.850,395.208 56.802 L 395.750 56.750 395.795 53.429 C 395.843 49.902,395.831 49.841,395.042 49.836 C 394.689 49.833,394.667 49.765,394.667 48.667 L 394.667 47.500 394.091 47.500 L 393.515 47.500 393.466 46.375 L 393.417 45.250 392.885 45.199 C 392.422 45.154,392.346 45.078,392.301 44.615 L 392.250 44.083 391.135 44.034 L 390.020 43.985 389.968 43.451 L 389.917 42.917 384.937 42.872 C 379.660 42.826,379.500 42.847,379.500 43.604 C 379.500 43.945,379.420 44.000,378.917 44.000 C 378.361 44.000,378.333 44.028,378.333 44.583 C 378.333 45.139,378.306 45.167,377.750 45.167 C 377.196 45.167,377.167 45.196,377.167 45.739 C 377.167 46.264,377.121 46.317,376.625 46.364 L 376.083 46.417 376.034 47.524 L 375.986 48.632 375.409 48.699 L 374.833 48.766 374.833 46.227 C 374.833 44.831,374.760 43.496,374.671 43.261 L 374.508 42.833 371.190 42.833 C 367.217 42.833,367.672 42.238,367.669 47.443 L 367.667 51.302 367.089 51.125 L 366.511 50.947 366.464 49.265 L 366.417 47.583 365.875 47.531 C 365.379 47.483,365.333 47.430,365.333 46.906 C 365.333 46.363,365.304 46.333,364.750 46.333 C 364.194 46.333,364.167 46.306,364.167 45.750 C 364.167 45.194,364.139 45.167,363.583 45.167 C 363.028 45.167,363.000 45.139,363.000 44.583 C 363.000 44.030,362.971 44.000,362.427 44.000 C 361.903 44.000,361.850 43.954,361.802 43.458 L 361.750 42.917 356.715 42.873 C 351.872 42.830,351.674 42.841,351.507 43.153 M137.833 46.717 C 137.833 46.927,137.923 47.190,138.033 47.300 C 138.189 47.456,137.988 47.500,137.129 47.500 C 135.950 47.500,135.500 47.734,135.500 48.345 C 135.500 48.644,135.366 48.667,133.608 48.667 L 131.716 48.667 131.899 48.083 C 132.076 47.519,132.109 47.500,132.916 47.497 C 133.903 47.494,134.079 47.400,134.228 46.792 L 134.340 46.333 136.087 46.333 C 137.798 46.333,137.833 46.341,137.833 46.717 M306.260 51.000 L 306.833 51.000 306.833 53.333 L 306.833 55.667 305.583 55.667 L 304.333 55.667 304.333 53.333 L 304.333 51.000 304.917 51.000 C 305.475 51.000,305.501 50.973,305.528 50.375 L 305.556 49.750 305.621 50.375 C 305.683 50.963,305.720 51.000,306.260 51.000 M337.333 50.417 C 337.333 50.972,337.361 51.000,337.917 51.000 L 338.500 51.000 338.500 53.333 L 338.500 55.667 337.917 55.667 C 337.361 55.667,337.333 55.694,337.333 56.250 L 337.333 56.833 335.500 56.833 L 333.667 56.833 333.667 56.341 C 333.667 55.910,333.594 55.835,333.083 55.739 C 332.583 55.645,332.500 55.564,332.500 55.166 C 332.500 54.695,332.252 54.500,331.653 54.500 C 331.369 54.500,331.333 54.372,331.333 53.344 L 331.333 52.188 331.875 52.136 L 332.417 52.083 332.466 50.958 L 332.515 49.833 334.924 49.833 L 337.333 49.833 337.333 50.417 M358.333 50.217 C 358.333 50.702,358.628 51.000,359.106 51.000 C 359.405 51.000,359.489 51.108,359.531 51.542 C 359.577 52.018,359.649 52.090,360.125 52.136 L 360.667 52.188 360.667 53.333 L 360.667 54.479 360.125 54.531 C 359.649 54.577,359.577 54.649,359.531 55.125 C 359.489 55.559,359.405 55.667,359.106 55.667 C 358.628 55.667,358.333 55.965,358.333 56.450 C 358.333 56.826,358.298 56.833,356.583 56.833 L 354.833 56.833 354.833 56.351 C 354.833 55.861,354.593 55.667,353.986 55.667 C 353.712 55.667,353.666 55.542,353.664 54.792 C 353.661 53.762,353.571 53.589,352.958 53.439 C 352.175 53.248,352.282 52.167,353.083 52.167 C 353.637 52.167,353.667 52.137,353.667 51.594 C 353.667 51.070,353.712 51.017,354.208 50.969 C 354.685 50.923,354.756 50.851,354.802 50.375 L 354.854 49.833 356.594 49.833 C 358.298 49.833,358.333 49.841,358.333 50.217 M387.669 50.542 C 387.673 51.667,387.821 52.006,388.355 52.113 C 389.148 52.271,389.095 54.354,388.292 54.591 C 387.887 54.710,387.737 54.858,387.700 55.176 C 387.663 55.493,387.514 55.643,387.117 55.759 C 386.707 55.880,386.571 56.023,386.531 56.375 L 386.478 56.833 384.749 56.833 L 383.021 56.833 382.969 56.292 C 382.923 55.815,382.851 55.744,382.375 55.698 L 381.833 55.646 381.833 53.333 L 381.833 51.021 382.375 50.969 C 382.851 50.923,382.923 50.851,382.969 50.375 L 383.021 49.833 385.344 49.833 L 387.667 49.833 387.669 50.542 M139.000 55.667 C 139.000 56.706,138.965 56.833,138.680 56.833 C 138.074 56.833,137.833 57.028,137.833 57.518 L 137.833 58.000 135.500 58.000 L 133.167 58.000 133.167 57.417 C 133.167 56.884,133.209 56.833,133.649 56.833 C 134.137 56.833,134.333 56.593,134.333 55.994 C 134.333 55.728,134.486 55.675,135.375 55.633 C 136.391 55.585,136.421 55.570,136.576 55.042 L 136.736 54.500 137.868 54.500 L 139.000 54.500 139.000 55.667 " stroke="none" fill="#fcfcfc" fill-rule="evenodd"></path><path id="path1" d="M26.333 0.323 C 26.333 0.565,26.198 0.659,25.792 0.698 C 25.315 0.744,25.244 0.815,25.198 1.292 C 25.152 1.763,25.084 1.833,24.674 1.833 C 24.015 1.833,24.000 1.925,24.000 5.858 C 24.000 9.569,24.078 10.000,24.745 10.000 C 25.075 10.000,25.155 10.095,25.198 10.542 C 25.244 11.017,25.316 11.090,25.790 11.135 C 26.239 11.179,26.352 11.277,26.467 11.719 L 26.605 12.250 30.594 12.250 L 34.583 12.250 34.635 11.718 C 34.680 11.255,34.755 11.180,35.218 11.135 C 35.681 11.090,35.757 11.015,35.801 10.551 C 35.846 10.088,35.922 10.013,36.385 9.968 L 36.917 9.917 36.966 8.803 C 37.013 7.730,37.032 7.686,37.490 7.585 C 38.485 7.367,38.475 4.167,37.479 4.167 L 37.000 4.167 37.000 3.000 C 37.000 1.977,36.962 1.833,36.692 1.833 C 36.321 1.833,35.833 1.329,35.833 0.945 C 35.833 0.778,35.700 0.667,35.500 0.667 C 35.278 0.667,35.167 0.556,35.167 0.333 C 35.167 0.008,35.056 0.000,30.750 0.000 C 26.493 0.000,26.333 0.012,26.333 0.323 M30.431 13.083 C 30.066 13.477,29.949 13.500,28.278 13.500 L 26.511 13.500 25.928 14.083 C 25.404 14.607,25.252 14.667,24.436 14.667 C 23.222 14.667,23.000 14.772,23.000 15.351 C 23.000 15.784,22.944 15.833,22.458 15.834 C 21.826 15.835,20.833 16.387,20.833 16.737 C 20.833 16.897,20.620 16.998,20.208 17.032 C 19.667 17.076,19.562 17.155,19.426 17.617 C 19.299 18.047,19.171 18.160,18.759 18.200 C 18.321 18.243,18.243 18.324,18.199 18.782 C 18.154 19.245,18.078 19.320,17.615 19.365 C 17.150 19.410,17.077 19.484,17.031 19.958 C 16.989 20.392,16.905 20.500,16.606 20.500 C 16.104 20.500,15.833 20.803,15.833 21.367 C 15.833 21.755,15.762 21.833,15.413 21.833 C 14.920 21.833,14.667 22.340,14.667 23.326 C 14.667 23.922,14.629 23.970,14.083 24.072 L 13.500 24.182 13.500 25.341 C 13.500 26.462,13.486 26.500,13.089 26.500 C 12.402 26.500,12.323 26.922,12.371 30.288 L 12.417 33.417 12.958 33.469 C 13.432 33.515,13.500 33.581,13.500 34.001 C 13.500 34.361,13.615 34.537,13.957 34.701 C 14.208 34.821,14.512 35.125,14.633 35.377 L 14.852 35.833 17.598 35.833 C 20.063 35.833,20.354 35.803,20.447 35.542 C 20.617 35.064,21.031 34.667,21.359 34.667 C 21.599 34.667,21.667 34.539,21.667 34.083 C 21.667 33.619,21.732 33.500,21.986 33.500 C 22.738 33.500,22.833 33.349,22.833 32.149 C 22.833 31.039,22.847 31.000,23.244 31.000 C 23.778 31.000,24.000 30.563,24.000 29.511 L 24.000 28.667 24.583 28.667 C 25.135 28.667,25.167 28.636,25.167 28.102 C 25.167 27.580,25.211 27.531,25.750 27.468 L 26.333 27.400 26.333 29.247 L 26.333 31.094 25.860 31.272 C 25.280 31.491,25.167 32.254,25.167 35.930 C 25.167 38.271,25.161 38.311,24.792 38.363 C 24.254 38.440,24.021 39.282,24.009 41.192 L 24.000 42.801 23.525 42.966 C 22.969 43.160,22.833 43.778,22.833 46.107 C 22.833 47.449,22.819 47.500,22.450 47.500 C 21.787 47.500,21.667 47.800,21.667 49.450 C 21.667 50.956,21.656 51.000,21.283 51.000 C 20.674 51.000,20.500 51.320,20.500 52.439 C 20.500 53.346,20.456 53.492,20.151 53.588 C 19.662 53.743,19.333 54.646,19.333 55.832 C 19.333 56.821,19.323 56.844,18.831 56.942 C 18.257 57.057,18.189 57.241,18.126 58.831 C 18.086 59.847,18.051 59.931,17.548 60.247 C 17.033 60.571,17.013 60.626,17.006 61.708 L 17.000 62.833 16.417 62.833 L 15.833 62.833 15.833 63.989 L 15.833 65.146 15.292 65.198 L 14.750 65.250 14.701 66.375 L 14.651 67.500 14.076 67.500 L 13.500 67.500 13.500 68.667 L 13.500 69.833 12.917 69.833 L 12.333 69.833 12.333 70.989 L 12.333 72.146 11.792 72.198 L 11.250 72.250 11.198 73.667 C 11.135 75.375,11.346 76.209,11.905 76.464 C 12.215 76.606,12.325 76.801,12.364 77.283 C 12.412 77.863,12.462 77.921,12.958 77.969 C 13.357 78.007,13.500 78.103,13.500 78.332 C 13.500 79.085,13.841 79.167,17.000 79.167 C 20.139 79.167,20.500 79.083,20.500 78.356 C 20.500 78.176,20.702 78.009,21.042 77.909 C 21.569 77.754,21.585 77.723,21.633 76.718 C 21.682 75.691,21.684 75.686,22.216 75.635 L 22.750 75.583 22.799 74.468 L 22.848 73.353 23.382 73.302 L 23.917 73.250 23.966 72.135 L 24.015 71.020 24.549 70.968 L 25.083 70.917 25.132 69.802 L 25.181 68.687 25.716 68.635 L 26.250 68.583 26.299 67.458 C 26.342 66.488,26.391 66.333,26.661 66.333 C 27.403 66.333,27.500 66.179,27.500 64.993 L 27.500 63.854 28.042 63.802 L 28.583 63.750 28.631 62.042 L 28.678 60.333 29.256 60.333 L 29.833 60.333 29.833 59.167 L 29.833 58.000 30.327 58.000 C 31.012 58.000,31.167 57.617,31.167 55.928 L 31.167 54.500 31.647 54.500 C 32.244 54.500,32.328 54.238,32.331 52.375 C 32.333 51.016,32.338 51.000,32.754 51.000 C 33.342 51.000,33.500 50.473,33.500 48.515 C 33.500 46.875,33.695 46.333,34.287 46.333 C 34.597 46.333,34.667 45.857,34.667 43.732 L 34.667 41.658 35.148 41.562 C 35.772 41.437,35.829 41.089,35.831 37.375 C 35.833 34.718,35.856 34.500,36.133 34.500 C 36.574 34.500,36.833 34.167,36.833 33.600 C 36.833 33.211,36.878 33.144,37.033 33.300 C 37.147 33.413,37.689 33.500,38.283 33.500 C 39.199 33.500,39.333 33.540,39.333 33.813 C 39.333 34.516,39.686 34.581,43.817 34.637 C 48.073 34.696,48.667 34.612,48.667 33.955 C 48.667 33.663,48.799 33.530,49.208 33.409 L 49.750 33.250 49.795 29.620 C 49.848 25.337,49.864 25.391,48.498 25.237 C 47.546 25.129,47.500 25.102,47.500 24.663 C 47.500 24.046,47.320 24.000,44.903 24.000 L 42.833 24.000 42.833 23.518 C 42.833 22.941,42.611 22.833,41.414 22.833 C 40.529 22.833,40.521 22.829,40.469 22.292 C 40.423 21.815,40.351 21.744,39.875 21.698 C 39.441 21.656,39.333 21.572,39.333 21.273 C 39.333 20.794,39.035 20.500,38.550 20.500 C 38.283 20.500,38.167 20.403,38.167 20.180 C 38.167 19.574,37.972 19.333,37.482 19.333 C 37.010 19.333,37.000 19.315,37.000 18.430 C 37.000 17.226,36.893 17.000,36.323 17.000 C 35.853 17.000,35.848 16.989,35.799 15.875 L 35.750 14.750 35.218 14.699 C 34.755 14.654,34.680 14.578,34.635 14.115 L 34.583 13.583 33.306 13.535 C 32.161 13.491,32.002 13.444,31.761 13.077 C 31.417 12.552,30.921 12.555,30.431 13.083 M196.707 28.805 C 196.542 28.910,196.507 31.829,196.541 42.844 L 196.583 56.750 197.125 56.802 L 197.667 56.854 197.667 58.011 L 197.667 59.167 198.242 59.167 L 198.818 59.167 198.867 60.292 L 198.917 61.417 199.449 61.468 C 199.912 61.513,199.987 61.588,200.032 62.051 C 200.076 62.509,200.155 62.590,200.593 62.633 C 201.004 62.673,201.133 62.786,201.259 63.216 C 201.412 63.735,201.446 63.751,202.458 63.800 C 203.405 63.845,203.500 63.883,203.503 64.216 C 203.508 64.972,203.730 65.080,205.410 65.141 C 206.955 65.197,207.000 65.210,207.000 65.594 C 207.000 66.277,207.399 66.334,212.031 66.314 C 217.153 66.291,217.396 66.260,217.469 65.624 C 217.521 65.175,217.543 65.166,218.719 65.147 C 220.547 65.117,220.898 65.004,220.999 64.415 C 221.074 63.978,221.162 63.910,221.709 63.865 C 222.299 63.816,222.333 63.782,222.333 63.240 L 222.333 62.667 223.323 62.667 C 224.472 62.667,224.504 62.633,224.623 61.322 L 224.713 60.333 225.273 60.333 C 225.802 60.333,225.833 60.301,225.833 59.750 C 225.833 59.218,225.876 59.167,226.316 59.167 C 226.894 59.167,227.000 58.945,227.000 57.736 C 227.000 56.882,227.023 56.833,227.421 56.833 C 228.158 56.833,228.167 56.666,228.167 42.425 L 228.167 28.872 227.792 28.772 C 227.303 28.641,218.531 28.641,218.042 28.772 L 217.667 28.872 217.667 41.103 L 217.667 53.333 217.083 53.333 C 216.528 53.333,216.500 53.361,216.500 53.917 C 216.500 54.381,216.435 54.500,216.180 54.500 C 215.574 54.500,215.333 54.694,215.333 55.184 C 215.333 55.638,215.291 55.668,214.625 55.683 C 213.464 55.711,213.090 55.874,213.031 56.382 C 212.954 57.037,211.667 57.079,211.667 56.427 C 211.667 55.905,211.568 55.853,210.356 55.726 C 209.435 55.630,209.347 55.585,209.301 55.195 C 209.262 54.874,209.119 54.736,208.719 54.633 C 208.276 54.519,208.179 54.406,208.135 53.956 C 208.090 53.482,208.017 53.410,207.542 53.364 L 207.000 53.312 207.000 41.092 L 207.000 28.872 206.625 28.772 C 206.062 28.621,196.949 28.651,196.707 28.805 M0.667 35.247 C 0.667 35.722,0.604 35.833,0.333 35.833 C 0.009 35.833,0.000 35.944,0.000 39.917 C 0.000 43.865,0.011 44.000,0.328 44.000 C 0.629 44.000,0.659 44.137,0.703 45.708 L 0.750 47.417 1.292 47.469 L 1.833 47.521 1.833 49.159 C 1.833 50.887,1.885 51.000,2.680 51.000 C 2.971 51.000,3.000 51.133,3.003 52.458 C 3.005 54.093,3.065 54.260,3.703 54.420 C 4.128 54.526,4.155 54.593,4.201 55.641 L 4.250 56.750 4.792 56.802 L 5.333 56.854 5.333 58.394 C 5.333 60.033,5.455 60.333,6.117 60.333 C 6.479 60.333,6.500 60.396,6.502 61.458 C 6.505 62.710,6.738 63.335,7.295 63.581 C 7.630 63.729,7.667 63.865,7.667 64.938 C 7.667 66.185,7.757 66.333,8.514 66.333 C 8.805 66.333,8.833 66.465,8.833 67.800 C 8.833 69.551,8.917 69.667,10.189 69.667 C 11.795 69.667,12.333 69.205,12.333 67.829 C 12.333 67.463,12.425 67.357,12.810 67.280 C 13.303 67.181,13.493 66.677,13.498 65.458 C 13.500 65.083,13.574 65.000,13.911 65.000 C 14.465 65.000,14.667 64.559,14.667 63.344 C 14.667 62.550,14.721 62.333,14.920 62.333 C 15.060 62.333,15.259 62.146,15.364 61.917 C 15.468 61.688,15.616 61.500,15.693 61.500 C 15.770 61.500,15.833 60.980,15.833 60.344 L 15.833 59.188 16.375 59.136 C 17.255 59.051,17.289 57.427,16.424 56.767 C 15.837 56.319,15.833 56.308,15.833 55.025 C 15.833 53.644,15.689 53.333,15.050 53.333 C 14.679 53.333,14.667 53.287,14.667 51.845 C 14.667 50.270,14.485 49.833,13.829 49.833 C 13.558 49.833,13.509 49.681,13.466 48.708 L 13.417 47.583 12.881 47.532 L 12.345 47.480 12.297 45.782 L 12.250 44.083 11.708 44.031 L 11.167 43.979 11.167 42.667 C 11.167 41.023,10.987 40.500,10.421 40.500 C 10.015 40.500,10.000 40.462,10.000 39.442 C 10.000 38.126,9.743 37.354,9.241 37.163 C 8.965 37.058,8.841 36.860,8.803 36.467 C 8.756 35.983,8.685 35.910,8.218 35.865 C 7.755 35.820,7.680 35.745,7.635 35.282 L 7.583 34.750 4.125 34.705 L 0.667 34.660 0.667 35.247 M52.268 34.930 C 52.212 35.075,52.167 35.338,52.167 35.514 C 52.167 35.755,52.049 35.833,51.684 35.833 C 51.108 35.833,51.000 36.056,51.000 37.243 C 51.000 38.080,50.976 38.130,50.523 38.220 C 49.959 38.333,49.833 38.754,49.833 40.521 L 49.833 41.667 49.351 41.667 C 48.733 41.667,48.667 41.862,48.667 43.670 L 48.667 45.146 48.125 45.198 L 47.583 45.250 47.534 46.375 C 47.491 47.348,47.442 47.500,47.171 47.500 C 46.516 47.500,46.333 47.937,46.333 49.501 L 46.333 50.979 45.792 51.031 L 45.250 51.083 45.206 55.965 C 45.159 61.143,45.205 61.500,45.915 61.500 C 46.297 61.500,46.321 61.560,46.367 62.625 L 46.417 63.750 46.936 63.801 L 47.455 63.851 47.540 65.342 C 47.627 66.879,47.813 67.333,48.354 67.333 C 48.600 67.333,48.667 67.457,48.667 67.913 C 48.667 68.584,48.959 68.723,50.180 68.636 C 50.870 68.587,50.920 68.550,50.967 68.063 C 51.009 67.639,51.116 67.515,51.551 67.391 L 52.083 67.238 52.131 65.536 L 52.178 63.833 52.749 63.833 L 53.319 63.833 53.368 62.625 C 53.412 61.530,53.450 61.412,53.779 61.365 C 54.263 61.296,54.500 60.568,54.500 59.152 L 54.500 58.021 55.042 57.969 L 55.583 57.917 55.631 56.208 L 55.678 54.500 56.256 54.500 L 56.833 54.500 56.833 53.262 C 56.833 52.109,56.859 52.020,57.204 51.970 C 57.748 51.892,57.995 51.239,57.998 49.875 C 58.000 48.796,58.034 48.667,58.320 48.667 C 59.115 48.667,59.167 48.553,59.167 46.826 L 59.167 45.188 59.708 45.136 L 60.250 45.083 60.297 43.375 L 60.345 41.667 60.806 41.667 C 61.567 41.667,61.668 41.417,61.650 39.592 C 61.628 37.374,61.544 37.097,60.868 37.031 C 60.380 36.983,60.333 36.929,60.333 36.406 C 60.333 35.863,60.304 35.833,59.750 35.833 C 59.194 35.833,59.167 35.806,59.167 35.250 L 59.167 34.667 55.768 34.667 C 52.822 34.667,52.356 34.702,52.268 34.930 M244.667 38.747 L 244.667 39.333 243.512 39.333 C 242.446 39.333,242.351 39.362,242.284 39.708 L 242.212 40.083 242.189 39.708 L 242.167 39.333 237.500 39.333 L 232.833 39.333 232.833 58.083 L 232.833 76.833 237.500 76.833 L 242.167 76.833 242.192 70.458 C 242.205 66.952,242.247 64.282,242.284 64.525 C 242.369 65.072,242.671 65.161,244.458 65.164 L 245.833 65.167 245.833 65.649 C 245.833 66.307,245.973 66.336,248.972 66.314 C 252.239 66.289,252.567 66.227,252.636 65.624 C 252.687 65.180,252.719 65.167,253.728 65.167 C 254.879 65.167,255.167 64.995,255.167 64.308 C 255.167 63.862,255.195 63.848,256.203 63.800 C 257.214 63.751,257.243 63.737,257.394 63.208 C 257.520 62.766,257.632 62.667,258.006 62.667 C 258.558 62.667,258.667 62.431,258.667 61.236 L 258.667 60.333 259.250 60.333 L 259.833 60.333 259.833 59.167 L 259.833 58.000 260.417 58.000 L 261.000 58.000 261.000 51.845 C 261.000 45.241,260.991 45.167,260.155 45.167 C 259.877 45.167,259.833 45.044,259.833 44.262 C 259.833 43.297,259.563 42.833,258.999 42.833 C 258.770 42.833,258.674 42.691,258.636 42.292 C 258.590 41.818,258.517 41.744,258.051 41.699 C 257.588 41.654,257.513 41.578,257.468 41.115 C 257.423 40.650,257.349 40.577,256.875 40.531 C 256.477 40.493,256.333 40.397,256.333 40.170 C 256.333 39.387,256.216 39.333,254.493 39.333 L 252.854 39.333 252.802 38.792 L 252.750 38.250 248.708 38.205 L 244.667 38.161 244.667 38.747 M35.833 46.396 C 35.833 47.616,35.830 47.626,35.355 47.721 C 34.766 47.838,34.672 48.143,34.669 49.947 C 34.667 51.151,34.629 51.323,34.342 51.414 C 34.163 51.471,33.971 51.663,33.914 51.842 C 33.857 52.021,33.741 52.167,33.655 52.167 C 33.570 52.167,33.500 52.736,33.500 53.432 C 33.500 54.566,33.465 54.707,33.160 54.787 C 32.473 54.966,32.333 55.622,32.333 58.658 C 32.333 60.907,32.379 61.500,32.554 61.500 C 33.174 61.500,33.500 62.235,33.500 63.628 L 33.500 64.985 34.078 65.093 L 34.655 65.202 34.703 66.809 L 34.750 68.417 35.292 68.469 L 35.833 68.521 35.833 70.061 C 35.833 71.696,35.955 72.000,36.609 72.000 C 36.961 72.000,36.989 72.080,37.034 73.208 L 37.083 74.417 37.625 74.469 L 38.167 74.521 38.167 75.677 L 38.167 76.833 38.750 76.833 C 39.306 76.833,39.333 76.861,39.333 77.417 C 39.333 77.970,39.363 78.000,39.906 78.000 C 40.430 78.000,40.483 78.046,40.531 78.542 L 40.583 79.083 43.417 79.083 L 46.250 79.083 46.302 78.542 C 46.350 78.046,46.403 78.000,46.927 78.000 C 47.471 78.000,47.500 77.970,47.500 77.417 C 47.500 76.924,47.558 76.833,47.875 76.831 C 48.653 76.825,48.678 76.727,48.629 73.821 L 48.583 71.083 48.042 71.031 C 47.500 70.979,47.500 70.978,47.498 70.031 C 47.495 68.347,47.343 67.819,46.809 67.633 C 46.348 67.472,46.333 67.432,46.333 66.317 C 46.333 65.406,46.281 65.167,46.083 65.167 C 45.466 65.167,45.182 64.560,45.132 63.132 L 45.083 61.750 44.542 61.698 L 44.000 61.646 44.000 60.170 C 44.000 58.362,43.933 58.167,43.316 58.167 C 42.835 58.167,42.833 58.163,42.832 57.125 C 42.831 55.646,42.583 54.860,42.076 54.733 C 41.700 54.639,41.667 54.551,41.667 53.662 C 41.667 52.567,41.557 52.167,41.258 52.167 C 40.764 52.167,40.500 51.564,40.500 50.434 C 40.500 49.111,40.310 48.667,39.744 48.667 C 39.350 48.667,39.333 48.623,39.333 47.592 C 39.333 46.586,39.305 46.504,38.877 46.299 C 38.625 46.179,38.321 45.875,38.201 45.623 C 37.996 45.195,37.914 45.167,36.908 45.167 L 35.833 45.167 35.833 46.396 M248.248 47.500 L 249.312 47.500 249.364 48.042 C 249.410 48.518,249.482 48.590,249.958 48.636 C 250.454 48.683,250.500 48.736,250.500 49.261 C 250.500 49.804,250.530 49.833,251.083 49.833 L 251.667 49.833 251.667 51.583 C 251.667 53.197,251.642 53.333,251.347 53.333 C 250.607 53.333,250.500 53.492,250.500 54.591 L 250.500 55.646 249.958 55.698 C 249.482 55.744,249.410 55.815,249.364 56.292 L 249.312 56.833 246.906 56.833 L 244.500 56.833 244.500 56.250 C 244.500 55.696,244.471 55.667,243.925 55.667 L 243.349 55.667 243.300 54.635 C 243.251 53.625,243.238 53.600,242.708 53.464 L 242.167 53.324 242.167 51.579 L 242.167 49.833 242.750 49.833 C 243.304 49.833,243.333 49.804,243.333 49.261 C 243.333 48.736,243.379 48.683,243.875 48.636 C 244.351 48.590,244.423 48.518,244.469 48.042 L 244.521 47.500 245.599 47.500 C 246.436 47.500,246.700 47.440,246.780 47.232 C 246.875 46.985,246.895 46.985,247.033 47.232 C 247.147 47.435,247.443 47.500,248.248 47.500 " stroke="none" fill="#1cabe3" fill-rule="evenodd"></path><path id="path2" d="" stroke="none" fill="#100d0ec" fill-rule="evenodd"></path><path id="path3" d="" stroke="none" fill="#100d0ec" fill-rule="evenodd"></path><path id="path4" d="" stroke="none" fill="#100d0ec" fill-rule="evenodd"></path></g></svg>